<?xml version="1.0" encoding="utf-8"?>
<!-- Generator: Adobe Illustrator 26.0.0, SVG Export Plug-In . SVG Version: 6.00 Build 0)  -->
<svg version="1.1" id="Layer_1" xmlns="http://www.w3.org/2000/svg" xmlns:xlink="http://www.w3.org/1999/xlink" x="0px" y="0px"
	 viewBox="0 0 612 792" style="enable-background:new 0 0 612 792;" xml:space="preserve">
<g>
	<path d="M427.09,354.8c0.1,24.33-9.08,45.11-24.54,63.43c-57.41,67.97-85.74,145.94-80.01,235.26c1.19,18.56,4.6,37,7.43,55.43
		c2.14,13.95,1.62,27.43-15.04,30.41c-16.66,2.98-24.18-8.28-27.36-23.26c-13.5-63.64-11.15-126.67,6.79-189.19
		c1.3-4.55,5.95-10.15,0.36-13.96c-4.01-2.73-8.48,1.59-12.34,3.67c-20.39,11.02-40.26,23.09-62.28,30.77
		c-13.41,4.67-27.84,8.26-34.6-8.75c-6.59-16.58,4.89-24.45,18.64-30.22c59.56-25.02,111.79-60.86,156.73-107.27
		c9.89-10.21,19.56-20.75,22.37-35.42c4.17-21.81-5.36-42.74-23.71-52.64c-19.22-10.37-41.52-7.63-58.57,9.6
		c-26.4,26.67-54.05,51.74-86.19,71.18c-53.91,32.62-112.41,50.78-175.65,52.65c-5.13,0.15-10.42,0.23-15.39-0.8
		c-10.53-2.19-17.71-8.59-17.56-19.84c0.13-10.4,6.92-16.72,16.81-18.29c18.42-2.94,37.04-4.56,55.45-7.56
		c75.36-12.27,137.83-48.27,189.06-104.27c26.95-29.46,65.71-38.86,104.09-24.43C403.63,283.36,426.81,318.24,427.09,354.8z"/>
	<path d="M333.06,54.94c58.7-0.26,107.03,13.66,152.43,38.72c13,7.18,23.25,16.76,14.48,32.31c-8.7,15.42-22.31,12.07-35.29,4.73
		c-100.06-56.53-230.29-42.84-316.07,46.2c-7.67,7.96-15.85,15.97-28.55,11.07c-15.67-6.03-17.21-22.66-2.97-37.85
		c46.04-49.1,102.24-79.55,168.67-90.94C303.58,56.12,321.49,54.24,333.06,54.94z"/>
	<path d="M523.31,355.24c0.07-79.69-41.43-142.55-114.61-173.78c-2.96-1.26-5.88-2.6-8.8-3.95c-12.84-5.91-20.01-15.65-13.83-29.3
		c5.76-12.72,17.46-13.42,29.77-9.12c38.59,13.48,71.1,35.81,97.03,67.33c40.73,49.52,58.36,106.42,53.31,170.38
		c-1.12,14.23-5.79,26.24-22.08,26.25c-16.73,0.01-20.91-12.17-20.8-26.6C523.36,369.39,523.31,362.32,523.31,355.24z"/>
	<path d="M418.26,628.2c2.62-44.35,15.31-90.22,45.54-130.21c11.64-15.4,23.45-30.68,34.96-46.18c7.97-10.73,17.99-15.5,29.99-8.22
		c12.34,7.5,12.3,19.16,5.39,30.33c-7.09,11.47-14.6,22.9-23.41,33.06c-48.56,55.95-60.39,119.15-38.73,189.33
		c0.38,1.23,0.86,2.43,1.28,3.65c7.88,23.12,5.42,35.56-8.88,39c-19.87,4.77-25.69-10.41-31.02-24.44
		C423.45,688.38,419.23,661.08,418.26,628.2z"/>
	<path d="M192.6,282.08c-0.39-6.2,2.32-11.12,6.1-15.75c59.28-72.5,137.9-90.4,213.04-53.07c10.49,5.21,19.99,11.62,28.34,19.77
		c9.21,9,14.08,18.95,4.48,30.44c-9.44,11.3-20.15,9.3-30.67,1.37c-21.55-16.25-45.03-26.67-72.64-27.6
		c-37.07-1.24-67.81,11.72-93.42,38.08c-7.61,7.83-15.36,15.59-23.59,22.75c-5.7,4.96-12.77,6.04-19.89,2.7
		C196.52,297.09,193.62,290.13,192.6,282.08z"/>
	<path d="M256.71,709.97c0.84,15.93-1.46,28.09-17.4,29.84c-16.75,1.84-22.61-10.07-24.46-23.83c-3.16-23.56-6.19-47.2-5.42-71.08
		c0.53-16.34-5.55-22.27-22.36-16.65c-21.95,7.34-44.55,12.77-67.64,15.27c-12.04,1.31-24.27,0.57-26.84-14.91
		c-2.54-15.3,6.89-22.7,20.2-25.56c34.64-7.45,68.72-16.31,101.41-30.52c16.83-7.32,27.94,0.11,31.59,19.2
		C253.43,631.63,250.87,672.5,256.71,709.97z"/>
	<path d="M63.42,515.64c-11.78-0.67-22.63-3.91-23.98-18.78c-1.42-15.59,7.89-22.01,21.91-23.44
		c58.4-5.97,112.83-24.23,163.77-53.09c12.04-6.82,22.75-5.68,30.38,5.63c8.01,11.89,3.67,22.74-7.86,29.5
		C190.87,488.74,129.74,509.05,63.42,515.64z"/>
	<path d="M454.16,353.48c-0.51-7.68-0.68-15.41-1.61-23.04c-1.72-14.09-0.12-27.23,16.58-29.41c16.13-2.1,22.23,9.72,24.88,23.58
		c7.93,41.57,1.62,80.84-21.57,116.3c-11.9,18.2-26.27,34.83-40.07,51.71c-7.69,9.41-17.75,13.68-28.66,5.32
		c-10.28-7.89-11.19-18.78-4.38-29.18c7.72-11.79,16.23-23.17,25.33-33.94C444.59,411.24,455.27,384.62,454.16,353.48z"/>
	<path d="M348.64,634.11c0.58-27.06,3.69-53.76,11.42-79.82c3.73-12.57,11.23-21.17,25.08-18.27c15.16,3.18,18.58,15.51,15.28,28.54
		c-12.44,49.17-11.44,97.84,2.28,146.58c3.48,12.35,0.59,23.7-13.47,27.73c-14.99,4.3-23.27-4.34-27.2-17.47
		C353.52,692.97,348.11,663.99,348.64,634.11z"/>
	<path d="M212.85,206.56c-9.77-0.03-16.85-2.8-20.13-10.94c-4.1-10.21-0.72-18.94,7.16-26c21.73-19.46,48.71-28.51,75.82-36.56
		c14.06-4.17,28.94-6.2,43.6-7.57c12.89-1.2,23.42,4.41,24.67,18.59c1.14,12.95-7.18,21.36-19.33,22.28
		c-37.65,2.86-71.07,16.48-102.28,36.82C219.27,205.21,215.21,205.76,212.85,206.56z"/>
	<path d="M70.92,372.85c-13.57-0.16-23.63-4.25-25.72-17.26c-2.11-13.09,5.79-20.93,17.91-23.23c25.43-4.82,49.62-13.11,73.4-23.09
		c11.74-4.92,22.04-1.53,27.8,9.86c5.57,11.04,1.01,20.81-9.06,26.23C128.45,359.8,99.78,369.02,70.92,372.85z"/>
	<path d="M608.07,227.49c-0.15,12.32-3.7,19.46-12.44,23.1c-8.66,3.61-17.37,2.46-22.65-5.17c-16.06-23.22-30.21-47.68-48.39-69.55
		c-5.98-7.2-3.36-17.71,3.66-24.75c6.44-6.46,15.74-9.17,22.96-3.49C578.68,169.25,595.04,198.87,608.07,227.49z"/>
	<path d="M103.75,291.04c-10.06-0.95-17.23-3.75-20.07-12.1c-3.19-9.37-1.72-18.49,7.01-24.01c18.48-11.67,37.31-22.8,56.32-33.6
		c8.49-4.82,16.47-1.48,22.65,5.1c6.44,6.87,7.94,16.12,2.29,23.11C153.92,271.86,129.14,283.63,103.75,291.04z"/>
	<path d="M286.79,386.81c-0.5-14.99,34.3-51.54,49.05-51.51c13.7,0.03,24.89,13.73,19.52,26.43c-8.21,19.42-23.37,33.87-41.94,43.13
		C300.35,411.36,287.27,401.32,286.79,386.81z"/>
	<path d="M96.35,581.65c-12.38-0.53-23.59-3.04-25.62-17.92c-2.18-15.92,7.75-21.92,21.3-24.08c12.06-1.92,24.16-3.84,36.31-4.89
		c10.72-0.93,19.19,3.28,21.91,14.57c2.98,12.37-3.88,19.85-14.41,23.89C123.2,578.06,110.01,581.18,96.35,581.65z"/>
</g>
</svg>
